# xmcd CD database file
#
# Track frame offsets:
#	150
#	35922
#	61590
#	93692
#	117388
#	146194
#	177360
#	215533
#	243597
#	273288
#
# Disc length: 4044 seconds
#
# Revision: 2
# Processed by: cddbd v1.5.1PL0 Copyright (c) Steve Scherf et al.
# Submitted via: CDex 1.51
#
DISCID=9b0fca0a
DTITLE=The Toronto Jazz Orchestra - Under a Tree
DYEAR=2002
DGENRE=Jazz
TTITLE0=Under a Tree
TTITLE1=Alicante
TTITLE2=From Everlasting to Everlasting
TTITLE3=Reverence
TTITLE4=Together at Last
TTITLE5=In Place
TTITLE6=First X's Free
TTITLE7=Kissing
TTITLE8=The Far Side
TTITLE9=Return of the Shuffleupagus
EXTD=YEAR: 2002
EXTT0=
EXTT1=
EXTT2=
EXTT3=
EXTT4=
EXTT5=
EXTT6=
EXTT7=
EXTT8=
EXTT9=
PLAYORDER=
